<svg xmlns="http://www.w3.org/2000/svg" xmlns:xlink="http://www.w3.org/1999/xlink" width="398.97" height="58.565" viewBox="0 0 398.97 58.565">
  <defs>
    <clipPath id="clip-path">
      <rect id="Rectangle_1" data-name="Rectangle 1" width="116.736" height="58.564" fill="#fff"/>
    </clipPath>
    <clipPath id="clip-path-2">
      <rect id="Rectangle_15" data-name="Rectangle 15" width="237.605" height="33.195" fill="#fff"/>
    </clipPath>
  </defs>
  <g id="Group_92" data-name="Group 92" transform="translate(-180 -56.435)">
    <g id="Group_3" data-name="Group 3" transform="translate(180 56.435)">
      <path id="Path_1" data-name="Path 1" d="M87.51,0,68.577,21.26V0H55.741V58.565H68.577V38.187l3.289-3.61L88.954,58.565h15.564L80.61,24.95,103.395,0Z" transform="translate(-23.605 0)" fill="#fff"/>
      <g id="Group_2" data-name="Group 2">
        <g id="Group_1" data-name="Group 1" clip-path="url(#clip-path)">
          <path id="Path_2" data-name="Path 2" d="M0,58.564V47.574H4.092q4.573,0,6.9-2.407t2.327-8.023V0H26.153V40.032a17.771,17.771,0,0,1-1.565,7.5,18.216,18.216,0,0,1-4.212,5.857A19.17,19.17,0,0,1,14.2,57.2a20.725,20.725,0,0,1-7.541,1.364Z" fill="#fff"/>
          <path id="Path_3" data-name="Path 3" d="M169.711,11.833a18.514,18.514,0,0,0-4.248-6.182,20.107,20.107,0,0,0-6.523-4.134A22.5,22.5,0,0,0,150.52,0a25.907,25.907,0,0,0-8.8,1.441A20.758,20.758,0,0,0,134.78,5.5a18.148,18.148,0,0,0-4.513,6.182,19.117,19.117,0,0,0-1.593,7.889,18.791,18.791,0,0,0,1.29,6.978,18.232,18.232,0,0,0,3.565,5.727,16.562,16.562,0,0,0,5.348,3.868,15.769,15.769,0,0,0,6.637,1.4c.92,0,1.762-.033,2.536-.1l-1.7-11.9-5.174-.518c-3.208-.321-4.449-.925-5.62-3.032l-.67-1.2,6.387-2.7-.9-1.612,4.059-1.729.631-6.308,2.538,4.563.814-8.141,11.693,21.02a54.289,54.289,0,0,1-18.691,24.027h0l7.282,8.5a55.231,55.231,0,0,0,6.258-5.689,71.135,71.135,0,0,0,6.865-8.344q1.9-2.731,3.641-5.689a43.18,43.18,0,0,0,3-6.144,46.374,46.374,0,0,0,2.01-6.447,28.779,28.779,0,0,0,.758-6.523,19.564,19.564,0,0,0-1.517-7.737" transform="translate(-54.492)" fill="#fff"/>
        </g>
      </g>
    </g>
    <line id="Line_1" data-name="Line 1" y2="58.515" transform="translate(319.051 56.485)" fill="none" stroke="#fff" stroke-width="1"/>
    <g id="Group_18" data-name="Group 18" transform="translate(341.365 81.454)">
      <g id="Group_17" data-name="Group 17" transform="translate(0 0)" clip-path="url(#clip-path-2)">
        <path id="Path_4" data-name="Path 4" d="M8.087,36.832a3.777,3.777,0,0,1-.89,1.383,3.607,3.607,0,0,1-1.383.828,5.555,5.555,0,0,1-1.78.273,4.914,4.914,0,0,1-2.422-.545A5.686,5.686,0,0,1,0,37.466l1.709-1.9a4.9,4.9,0,0,0,1.066.907,2.248,2.248,0,0,0,1.189.326,1.56,1.56,0,0,0,1.216-.485,2.278,2.278,0,0,0,.44-1.559V26.808H8.4v8.069a5.467,5.467,0,0,1-.317,1.955" transform="translate(0 -6.156)" fill="#fff"/>
        <path id="Path_5" data-name="Path 5" d="M23.369,37.156a4.858,4.858,0,0,1-1.075,1.559,5.075,5.075,0,0,1-1.621,1.057,5.283,5.283,0,0,1-2.043.388,5.346,5.346,0,0,1-2.026-.379,4.941,4.941,0,0,1-1.612-1.04,4.823,4.823,0,0,1-1.065-1.55,4.726,4.726,0,0,1-.388-1.911v-.035a4.726,4.726,0,0,1,.388-1.911A4.858,4.858,0,0,1,15,31.774a5.08,5.08,0,0,1,1.621-1.057,5.28,5.28,0,0,1,2.043-.387,5.351,5.351,0,0,1,2.026.378,4.949,4.949,0,0,1,1.612,1.04,4.836,4.836,0,0,1,1.065,1.55,4.739,4.739,0,0,1,.387,1.911v.035a4.736,4.736,0,0,1-.387,1.911m-2.255-1.911a2.787,2.787,0,0,0-.176-1,2.5,2.5,0,0,0-1.3-1.4,2.368,2.368,0,0,0-1-.211,2.471,2.471,0,0,0-1.031.2,2.267,2.267,0,0,0-.767.555,2.457,2.457,0,0,0-.485.819,2.925,2.925,0,0,0-.167,1v.035a2.8,2.8,0,0,0,.176,1,2.53,2.53,0,0,0,1.295,1.4,2.351,2.351,0,0,0,1.013.212,2.489,2.489,0,0,0,1.031-.2,2.277,2.277,0,0,0,.767-.555,2.45,2.45,0,0,0,.485-.819,2.944,2.944,0,0,0,.167-1Z" transform="translate(-3.109 -6.965)" fill="#fff"/>
        <path id="Path_6" data-name="Path 6" d="M34.867,33.13a2.759,2.759,0,0,0-2.105.81,3.563,3.563,0,0,0-.767,2.519v3.488H29.317V30.505h2.678v1.9a3.94,3.94,0,0,1,1.111-1.55,2.7,2.7,0,0,1,1.9-.528v2.8Z" transform="translate(-6.732 -6.964)" fill="#fff"/>
        <path id="Path_7" data-name="Path 7" d="M45.569,38.982V37.637A4.226,4.226,0,0,1,44.38,38.73a3.293,3.293,0,0,1-1.753.428,4.2,4.2,0,0,1-1.6-.317,3.97,3.97,0,0,1-1.374-.943,4.691,4.691,0,0,1-.96-1.532,5.608,5.608,0,0,1-.361-2.088v-.035a5.608,5.608,0,0,1,.361-2.088,4.777,4.777,0,0,1,.951-1.533,3.877,3.877,0,0,1,1.365-.942,4.232,4.232,0,0,1,1.621-.317,3.388,3.388,0,0,1,1.771.42,4.709,4.709,0,0,1,1.171.979V26.121h2.678V38.982Zm.035-4.739a3,3,0,0,0-.185-1.073,2.666,2.666,0,0,0-.493-.834,2.187,2.187,0,0,0-2.5-.532,2.24,2.24,0,0,0-.731.532,2.59,2.59,0,0,0-.5.825,2.982,2.982,0,0,0-.185,1.082v.035a3.006,3.006,0,0,0,.185,1.073,2.573,2.573,0,0,0,.5.834,2.24,2.24,0,0,0,.731.532,2.157,2.157,0,0,0,2.5-.532,2.666,2.666,0,0,0,.493-.834,3.006,3.006,0,0,0,.185-1.073Z" transform="translate(-8.801 -5.999)" fill="#fff"/>
        <path id="Path_8" data-name="Path 8" d="M59.677,39.97V38.947a3.7,3.7,0,0,1-1.18.872,3.883,3.883,0,0,1-1.673.326,4.194,4.194,0,0,1-1.26-.185,2.952,2.952,0,0,1-1.03-.555,2.652,2.652,0,0,1-.7-.907,2.861,2.861,0,0,1-.255-1.242v-.035a2.964,2.964,0,0,1,.282-1.339,2.564,2.564,0,0,1,.783-.934,3.528,3.528,0,0,1,1.2-.555,6,6,0,0,1,1.541-.185,6.579,6.579,0,0,1,1.26.106,7.892,7.892,0,0,1,1.048.282v-.159a1.6,1.6,0,0,0-.511-1.286,2.266,2.266,0,0,0-1.515-.441,6.311,6.311,0,0,0-1.365.132,9.321,9.321,0,0,0-1.242.379l-.669-2.044a10.544,10.544,0,0,1,1.621-.546,8.531,8.531,0,0,1,2.043-.211A4.211,4.211,0,0,1,61.263,31.5a4.216,4.216,0,0,1,1,2.994v5.48Zm.053-3.806a4.054,4.054,0,0,0-.784-.255,4.207,4.207,0,0,0-.924-.1,2.392,2.392,0,0,0-1.357.334,1.1,1.1,0,0,0-.493.969v.035a.99.99,0,0,0,.4.845,1.732,1.732,0,0,0,1.058.3,2.371,2.371,0,0,0,1.524-.458,1.463,1.463,0,0,0,.572-1.2Z" transform="translate(-12.304 -6.986)" fill="#fff"/>
        <path id="Path_9" data-name="Path 9" d="M73.824,39.949V34.694a2.118,2.118,0,0,0-.423-1.432,1.508,1.508,0,0,0-1.2-.484,1.59,1.59,0,0,0-1.224.484,2.033,2.033,0,0,0-.449,1.432v5.255H67.852V30.506H70.53v1.35a5.783,5.783,0,0,1,.5-.577,3.5,3.5,0,0,1,.608-.488,3.016,3.016,0,0,1,.74-.337,3.133,3.133,0,0,1,.916-.124,3.018,3.018,0,0,1,2.37.934,3.716,3.716,0,0,1,.837,2.572v6.113Z" transform="translate(-15.581 -6.965)" fill="#fff"/>
        <path id="Path_10" data-name="Path 10" d="M97.976,39.14,92,31.3v7.84H89.325V26.808h2.5L97.606,34.4V26.808h2.678V39.14Z" transform="translate(-20.512 -6.156)" fill="#fff"/>
        <path id="Path_11" data-name="Path 11" d="M112.389,39.97V38.947a3.692,3.692,0,0,1-1.18.872,3.883,3.883,0,0,1-1.673.326,4.189,4.189,0,0,1-1.26-.185,2.949,2.949,0,0,1-1.031-.555,2.652,2.652,0,0,1-.7-.907,2.861,2.861,0,0,1-.255-1.242v-.035a2.964,2.964,0,0,1,.282-1.339,2.564,2.564,0,0,1,.783-.934,3.535,3.535,0,0,1,1.2-.555,6,6,0,0,1,1.541-.185,6.579,6.579,0,0,1,1.26.106,7.892,7.892,0,0,1,1.048.282v-.159a1.6,1.6,0,0,0-.511-1.286,2.266,2.266,0,0,0-1.515-.441,6.316,6.316,0,0,0-1.365.132,9.322,9.322,0,0,0-1.242.379l-.669-2.044a10.525,10.525,0,0,1,1.622-.546,8.522,8.522,0,0,1,2.043-.211,4.209,4.209,0,0,1,3.206,1.075,4.216,4.216,0,0,1,1,2.994v5.48Zm.053-3.806a4.036,4.036,0,0,0-.784-.255,4.207,4.207,0,0,0-.924-.1,2.394,2.394,0,0,0-1.357.334,1.1,1.1,0,0,0-.493.969v.035a.99.99,0,0,0,.4.845,1.733,1.733,0,0,0,1.058.3,2.375,2.375,0,0,0,1.525-.458,1.465,1.465,0,0,0,.572-1.2Z" transform="translate(-24.409 -6.986)" fill="#fff"/>
        <path id="Path_12" data-name="Path 12" d="M124.729,39.29a4.224,4.224,0,0,1-1.18.149,4.4,4.4,0,0,1-1.119-.132,1.993,1.993,0,0,1-.864-.467,2.24,2.24,0,0,1-.564-.872,3.924,3.924,0,0,1-.2-1.366V32.129h-1.127v-2.29H120.8V27.425h2.678v2.414h2.22v2.29h-2.22v4.034q0,.915.864.916a2.725,2.725,0,0,0,1.321-.335v2.149a4.139,4.139,0,0,1-.934.4" transform="translate(-27.481 -6.298)" fill="#fff"/>
        <path id="Path_13" data-name="Path 13" d="M130.124,26.121h2.819V28.5h-2.819Zm.07,3.418h2.678v9.443h-2.678Z" transform="translate(-29.881 -5.999)" fill="#fff"/>
        <path id="Path_14" data-name="Path 14" d="M146.2,37.156a4.858,4.858,0,0,1-1.075,1.559,5.075,5.075,0,0,1-1.621,1.057,5.283,5.283,0,0,1-2.043.388,5.346,5.346,0,0,1-2.026-.379,4.941,4.941,0,0,1-1.612-1.04,4.824,4.824,0,0,1-1.065-1.55,4.726,4.726,0,0,1-.388-1.911v-.035a4.726,4.726,0,0,1,.388-1.911,4.858,4.858,0,0,1,1.075-1.559,5.08,5.08,0,0,1,1.621-1.057,5.28,5.28,0,0,1,2.043-.387,5.351,5.351,0,0,1,2.026.378,4.949,4.949,0,0,1,1.612,1.04A4.836,4.836,0,0,1,146.2,33.3a4.739,4.739,0,0,1,.387,1.911v.035a4.736,4.736,0,0,1-.387,1.911m-2.255-1.911a2.787,2.787,0,0,0-.176-1,2.5,2.5,0,0,0-1.3-1.4,2.368,2.368,0,0,0-1-.211,2.471,2.471,0,0,0-1.031.2,2.267,2.267,0,0,0-.767.555,2.457,2.457,0,0,0-.485.819,2.925,2.925,0,0,0-.167,1v.035a2.8,2.8,0,0,0,.176,1,2.53,2.53,0,0,0,1.295,1.4,2.351,2.351,0,0,0,1.013.212,2.488,2.488,0,0,0,1.031-.2,2.277,2.277,0,0,0,.767-.555,2.45,2.45,0,0,0,.485-.819,2.944,2.944,0,0,0,.167-1Z" transform="translate(-31.315 -6.965)" fill="#fff"/>
        <path id="Path_15" data-name="Path 15" d="M158.118,39.949V34.694a2.122,2.122,0,0,0-.422-1.432,1.509,1.509,0,0,0-1.2-.484,1.589,1.589,0,0,0-1.223.484,2.03,2.03,0,0,0-.45,1.432v5.255h-2.678V30.506h2.678v1.35a5.887,5.887,0,0,1,.5-.577,3.478,3.478,0,0,1,.609-.488,3.011,3.011,0,0,1,.74-.337,3.137,3.137,0,0,1,.916-.124,3.017,3.017,0,0,1,2.37.934,3.716,3.716,0,0,1,.837,2.572v6.113Z" transform="translate(-34.938 -6.965)" fill="#fff"/>
        <path id="Path_16" data-name="Path 16" d="M171.757,39.97V38.947a3.7,3.7,0,0,1-1.18.872,3.883,3.883,0,0,1-1.673.326,4.194,4.194,0,0,1-1.26-.185,2.952,2.952,0,0,1-1.03-.555,2.652,2.652,0,0,1-.7-.907,2.861,2.861,0,0,1-.255-1.242v-.035a2.964,2.964,0,0,1,.282-1.339,2.565,2.565,0,0,1,.783-.934,3.528,3.528,0,0,1,1.2-.555,6,6,0,0,1,1.542-.185,6.579,6.579,0,0,1,1.26.106,7.893,7.893,0,0,1,1.048.282v-.159a1.6,1.6,0,0,0-.511-1.286,2.266,2.266,0,0,0-1.515-.441,6.311,6.311,0,0,0-1.365.132,9.322,9.322,0,0,0-1.242.379l-.669-2.044a10.544,10.544,0,0,1,1.621-.546,8.531,8.531,0,0,1,2.043-.211,4.211,4.211,0,0,1,3.207,1.075,4.216,4.216,0,0,1,1,2.994v5.48Zm.053-3.806a4.054,4.054,0,0,0-.784-.255,4.207,4.207,0,0,0-.924-.1,2.392,2.392,0,0,0-1.357.334,1.1,1.1,0,0,0-.493.969v.035a.99.99,0,0,0,.4.845,1.732,1.732,0,0,0,1.058.3,2.371,2.371,0,0,0,1.524-.458,1.463,1.463,0,0,0,.572-1.2Z" transform="translate(-38.042 -6.986)" fill="#fff"/>
        <rect id="Rectangle_10" data-name="Rectangle 10" width="2.678" height="12.86" transform="translate(138.736 20.123)" fill="#fff"/>
        <path id="Path_17" data-name="Path 17" d="M202.028,39.14l-3.823-5.25-1.427,1.48v3.77h-2.713V26.808h2.713V32.2l5-5.391h3.276l-5.02,5.232,5.25,7.1Z" transform="translate(-44.564 -6.156)" fill="#fff"/>
        <path id="Path_18" data-name="Path 18" d="M219.49,35.3a6.234,6.234,0,0,1-1.03,2.123,4.726,4.726,0,0,1-1.682,1.374,5.213,5.213,0,0,1-2.326.493,5.921,5.921,0,0,1-2.308-.4,7.142,7.142,0,0,1-1.744-1.049l1.427-2.055a5.252,5.252,0,0,0,1.286.8,3.654,3.654,0,0,0,1.409.255,2.09,2.09,0,0,0,1.753-.78,3.968,3.968,0,0,0,.749-2.039,3.571,3.571,0,0,1-1.075.617,4.092,4.092,0,0,1-1.427.229,5.665,5.665,0,0,1-1.814-.273,4.035,4.035,0,0,1-1.392-.784,3.359,3.359,0,0,1-.89-1.251,4.375,4.375,0,0,1-.308-1.691,4.3,4.3,0,0,1,.344-1.726,4.11,4.11,0,0,1,.961-1.374,4.375,4.375,0,0,1,1.488-.907,5.419,5.419,0,0,1,1.911-.326,7.258,7.258,0,0,1,1.119.079,4.763,4.763,0,0,1,.925.238,3.627,3.627,0,0,1,.793.414,5.335,5.335,0,0,1,.723.608,4.264,4.264,0,0,1,.6.758,4.818,4.818,0,0,1,.458.986,7.249,7.249,0,0,1,.3,1.287,11.455,11.455,0,0,1,.106,1.638,10.078,10.078,0,0,1-.353,2.757m-2.988-5.91a2.274,2.274,0,0,0-1.6-.528,2.178,2.178,0,0,0-1.557.519,1.8,1.8,0,0,0-.549,1.366,1.727,1.727,0,0,0,.575,1.357,2.3,2.3,0,0,0,1.584.511,2.209,2.209,0,0,0,1.565-.52,1.737,1.737,0,0,0,.557-1.33,1.781,1.781,0,0,0-.575-1.374" transform="translate(-48.251 -6.093)" fill="#fff"/>
        <path id="Path_19" data-name="Path 19" d="M242.444,38a5.761,5.761,0,0,1-2.449,1.136,8.046,8.046,0,0,1-1.621.149,6.374,6.374,0,0,1-2.518-.493,6.2,6.2,0,0,1-2.009-1.348,6.123,6.123,0,0,1-1.321-2.017,6.491,6.491,0,0,1-.476-2.484v-.035a6.425,6.425,0,0,1,.476-2.475,6.344,6.344,0,0,1,1.321-2.026,6.134,6.134,0,0,1,2.026-1.374,6.6,6.6,0,0,1,2.607-.5,8.153,8.153,0,0,1,1.577.141,6.641,6.641,0,0,1,1.295.387,5.647,5.647,0,0,1,1.075.6,7.25,7.25,0,0,1,.915.775l-1.726,1.991a6.549,6.549,0,0,0-1.47-1.022,3.754,3.754,0,0,0-1.683-.37,3.409,3.409,0,0,0-2.572,1.127,3.868,3.868,0,0,0-.74,1.225,4.167,4.167,0,0,0-.264,1.488v.035a4.242,4.242,0,0,0,.264,1.5,3.92,3.92,0,0,0,.731,1.233,3.392,3.392,0,0,0,2.581,1.146,3.782,3.782,0,0,0,1.788-.387,6.95,6.95,0,0,0,1.453-1.057l1.728,1.744a9.093,9.093,0,0,1-.988.916" transform="translate(-53.287 -6.093)" fill="#fff"/>
        <path id="Path_20" data-name="Path 20" d="M257.933,35.827c-.005.094-.015.206-.026.334h-6.571a2.254,2.254,0,0,0,.8,1.383,2.4,2.4,0,0,0,1.506.467,2.974,2.974,0,0,0,1.2-.229,4.084,4.084,0,0,0,1.092-.74l1.532,1.357a4.745,4.745,0,0,1-1.62,1.294,5.029,5.029,0,0,1-2.238.468,5.378,5.378,0,0,1-1.964-.353,4.55,4.55,0,0,1-1.568-1,4.646,4.646,0,0,1-1.031-1.542,5.119,5.119,0,0,1-.37-1.982v-.035a5.289,5.289,0,0,1,.344-1.9,4.83,4.83,0,0,1,.96-1.568,4.48,4.48,0,0,1,3.365-1.444,4.6,4.6,0,0,1,2.044.422,4.158,4.158,0,0,1,1.436,1.137,4.724,4.724,0,0,1,.845,1.638,6.761,6.761,0,0,1,.273,1.93v.035q0,.194-.009.335M254.7,33.034a1.756,1.756,0,0,0-1.357-.555,1.8,1.8,0,0,0-1.365.545,2.746,2.746,0,0,0-.679,1.463h4.034a2.609,2.609,0,0,0-.634-1.454" transform="translate(-57.105 -6.965)" fill="#fff"/>
        <path id="Path_21" data-name="Path 21" d="M269.261,39.949V34.694a2.118,2.118,0,0,0-.423-1.432,1.508,1.508,0,0,0-1.2-.484,1.59,1.59,0,0,0-1.224.484,2.034,2.034,0,0,0-.449,1.432v5.255h-2.678V30.506h2.678v1.35a5.784,5.784,0,0,1,.5-.577,3.532,3.532,0,0,1,.608-.488,3.017,3.017,0,0,1,.74-.337,3.133,3.133,0,0,1,.916-.124,3.018,3.018,0,0,1,2.37.934,3.716,3.716,0,0,1,.837,2.572v6.113Z" transform="translate(-60.461 -6.965)" fill="#fff"/>
        <path id="Path_22" data-name="Path 22" d="M281.7,39.29a4.224,4.224,0,0,1-1.18.149,4.4,4.4,0,0,1-1.119-.132,1.993,1.993,0,0,1-.864-.467,2.24,2.24,0,0,1-.564-.872,3.924,3.924,0,0,1-.2-1.366V32.129h-1.127v-2.29h1.127V27.425h2.678v2.414h2.22v2.29h-2.22v4.034q0,.915.864.916a2.725,2.725,0,0,0,1.321-.335v2.149a4.139,4.139,0,0,1-.934.4" transform="translate(-63.527 -6.298)" fill="#fff"/>
        <path id="Path_23" data-name="Path 23" d="M295.689,35.827c-.005.094-.015.206-.026.334h-6.571a2.254,2.254,0,0,0,.8,1.383,2.4,2.4,0,0,0,1.506.467,2.975,2.975,0,0,0,1.2-.229,4.084,4.084,0,0,0,1.092-.74l1.532,1.357a4.745,4.745,0,0,1-1.62,1.294,5.029,5.029,0,0,1-2.238.468,5.378,5.378,0,0,1-1.964-.353,4.55,4.55,0,0,1-1.568-1,4.647,4.647,0,0,1-1.031-1.542,5.12,5.12,0,0,1-.37-1.982v-.035a5.272,5.272,0,0,1,.344-1.9,4.829,4.829,0,0,1,.96-1.568A4.48,4.48,0,0,1,291.1,30.33a4.6,4.6,0,0,1,2.044.422,4.158,4.158,0,0,1,1.436,1.137,4.724,4.724,0,0,1,.845,1.638,6.761,6.761,0,0,1,.273,1.93v.035q0,.194-.009.335m-3.232-2.793a1.756,1.756,0,0,0-1.357-.555,1.8,1.8,0,0,0-1.365.545,2.746,2.746,0,0,0-.679,1.463h4.034a2.609,2.609,0,0,0-.634-1.454" transform="translate(-65.775 -6.965)" fill="#fff"/>
        <path id="Path_24" data-name="Path 24" d="M306.595,33.13a2.759,2.759,0,0,0-2.105.81,3.564,3.564,0,0,0-.767,2.519v3.488h-2.678V30.505h2.678v1.9a3.931,3.931,0,0,1,1.11-1.55,2.7,2.7,0,0,1,1.9-.528v2.8Z" transform="translate(-69.131 -6.964)" fill="#fff"/>
        <path id="Path_25" data-name="Path 25" d="M7.579,10.127a1.651,1.651,0,0,0,1.171.419v1.935a3.965,3.965,0,0,1-2.047-.5,2.935,2.935,0,0,1-1.236-1.425A2.58,2.58,0,0,1,2.877,12.22a2.7,2.7,0,0,1-1.419-.4A2.926,2.926,0,0,1,.4,10.7,3.352,3.352,0,0,1,0,9.055,3.549,3.549,0,0,1,2.092,5.727,5.1,5.1,0,0,1,4.3,5.262a6.291,6.291,0,0,1,.85.052v-.6H7.128V8.872a1.631,1.631,0,0,0,.451,1.255m-5.538-6.5a1.07,1.07,0,0,1-.327-.785,1.07,1.07,0,0,1,.327-.784,1.068,1.068,0,0,1,.784-.327,1.071,1.071,0,0,1,.785.327,1.069,1.069,0,0,1,.327.784A1.115,1.115,0,0,1,2.825,3.954a1.068,1.068,0,0,1-.784-.327M4.675,9.709a2.56,2.56,0,0,0,.478-1.635V7.185a5.16,5.16,0,0,0-.772-.065,2.824,2.824,0,0,0-1.746.516,1.654,1.654,0,0,0-.686,1.393,1.157,1.157,0,0,0,.405.948,1.592,1.592,0,0,0,1.046.334,1.544,1.544,0,0,0,1.275-.6M4.643,3.628a1.069,1.069,0,0,1-.327-.785A1.117,1.117,0,0,1,5.428,1.731a1.07,1.07,0,0,1,.784.327,1.07,1.07,0,0,1,.327.784A1.117,1.117,0,0,1,5.428,3.954a1.069,1.069,0,0,1-.785-.327" transform="translate(0 -0.398)" fill="#fff"/>
        <path id="Path_26" data-name="Path 26" d="M16.67,11.88v1.936a3.08,3.08,0,0,1-2.812-1.151,3.141,3.141,0,0,1-1.184.85,4.144,4.144,0,0,1-1.628.3,1.037,1.037,0,0,1-.746-.288.94.94,0,0,1-.3-.706.875.875,0,0,1,.288-.679,1.082,1.082,0,0,1,.759-.262,1.679,1.679,0,0,0,1.177-.418,1.619,1.619,0,0,0,.458-1.256V7.538h1.974v2.668a1.667,1.667,0,0,0,.418,1.19,2.2,2.2,0,0,0,1.6.484m-5.1,5a1.1,1.1,0,1,1,.784.327,1.071,1.071,0,0,1-.784-.327m2.6,0a1.1,1.1,0,1,1,.785.327,1.071,1.071,0,0,1-.785-.327" transform="translate(-2.296 -1.731)" fill="#fff"/>
        <path id="Path_27" data-name="Path 27" d="M31.947,11.611v1.936H27.892a3.439,3.439,0,0,1-1.451-.268,2.04,2.04,0,0,1-.9-.8,2.829,2.829,0,0,1-.929.791,2.47,2.47,0,0,1-1.164.281h-5.1a1.058,1.058,0,0,1-.752-.275.964.964,0,0,1,0-1.387,1.061,1.061,0,0,1,.752-.274H19.98V6.8h1.975v4.812h1.229q1.112,0,1.112-1.674V6.8h1.974V9.937a1.984,1.984,0,0,0,.334,1.269,1.253,1.253,0,0,0,1.027.405h.981V6.366h1.974v5.245Z" transform="translate(-3.972 -1.462)" fill="#fff"/>
        <path id="Path_28" data-name="Path 28" d="M41.625,11.88v1.936a3.08,3.08,0,0,1-2.812-1.151,3.141,3.141,0,0,1-1.184.85,4.144,4.144,0,0,1-1.628.3,1.037,1.037,0,0,1-.746-.288.94.94,0,0,1-.3-.706.875.875,0,0,1,.288-.679A1.082,1.082,0,0,1,36,11.88a1.679,1.679,0,0,0,1.177-.418,1.619,1.619,0,0,0,.458-1.256V7.538H39.61v2.668a1.667,1.667,0,0,0,.418,1.19,2.2,2.2,0,0,0,1.6.484m-5.1,5a1.1,1.1,0,1,1,.784.327,1.071,1.071,0,0,1-.784-.327m2.6,0a1.1,1.1,0,1,1,.785.327,1.071,1.071,0,0,1-.785-.327" transform="translate(-8.027 -1.731)" fill="#fff"/>
        <path id="Path_29" data-name="Path 29" d="M44.936,3.226h1.975v9.6H43.3a1.057,1.057,0,0,1-.752-.275.963.963,0,0,1,0-1.386,1.057,1.057,0,0,1,.752-.275h1.635Z" transform="translate(-9.703 -0.741)" fill="#fff"/>
        <path id="Path_30" data-name="Path 30" d="M58.507,13.559H57.12A3.707,3.707,0,0,1,55.9,15.971a4.041,4.041,0,0,1-2.668.817,9.978,9.978,0,0,1-1.766-.17V14.709a11.072,11.072,0,0,0,1.478.117,2.849,2.849,0,0,0,1.431-.307,1.583,1.583,0,0,0,.726-.961h-.549a5.766,5.766,0,0,1-2.544-.491,3.274,3.274,0,0,1-1.458-1.288A3.428,3.428,0,0,1,50.1,10.04a3.522,3.522,0,0,1,.471-1.779,3.405,3.405,0,0,1,1.478-1.333,5.586,5.586,0,0,1,2.538-.51h2.6v5.2h1.321Zm-5.9-2.394a3.312,3.312,0,0,0,1.975.458h.653V8.392h-.679a3.21,3.21,0,0,0-1.955.465,1.412,1.412,0,0,0-.6,1.157,1.392,1.392,0,0,0,.6,1.151" transform="translate(-11.504 -1.474)" fill="#fff"/>
        <path id="Path_31" data-name="Path 31" d="M66.326,11.88v1.935a3.081,3.081,0,0,1-2.812-1.15,3.132,3.132,0,0,1-1.183.85,4.162,4.162,0,0,1-1.629.3,1.036,1.036,0,0,1-.745-.287.937.937,0,0,1-.3-.706.878.878,0,0,1,.288-.68,1.084,1.084,0,0,1,.758-.261,1.676,1.676,0,0,0,1.177-.418,1.619,1.619,0,0,0,.458-1.256V7.538h1.975v2.668a1.667,1.667,0,0,0,.418,1.19,2.2,2.2,0,0,0,1.6.484m-3.74,4.983a1.106,1.106,0,1,1,.785.327,1.071,1.071,0,0,1-.785-.327" transform="translate(-13.699 -1.731)" fill="#fff"/>
        <path id="Path_32" data-name="Path 32" d="M69.637,3.226h1.975v9.6H68a1.057,1.057,0,0,1-.752-.275.963.963,0,0,1,0-1.386A1.057,1.057,0,0,1,68,10.89h1.635Z" transform="translate(-15.376 -0.741)" fill="#fff"/>
        <rect id="Rectangle_11" data-name="Rectangle 11" width="1.975" height="9.6" transform="translate(57.622 2.484)" fill="#fff"/>
        <path id="Path_33" data-name="Path 33" d="M84.89,13.344A4.028,4.028,0,0,1,83.229,12a3.44,3.44,0,0,1-.621-2.041,5.127,5.127,0,0,1,.353-1.765h1.844a5.055,5.055,0,0,0-.249,1.425,2.129,2.129,0,0,0,.661,1.668,2.791,2.791,0,0,0,1.929.595H92.26V7.538h1.974v6.278H87.146a5.4,5.4,0,0,1-2.256-.471m2.727,3.531a1.1,1.1,0,1,1,.785.327,1.071,1.071,0,0,1-.785-.327" transform="translate(-18.97 -1.731)" fill="#fff"/>
        <path id="Path_34" data-name="Path 34" d="M110.119,10.89v1.936a3.081,3.081,0,0,1-2.812-1.151,3.138,3.138,0,0,1-1.183.85,4.148,4.148,0,0,1-1.629.3h-5V10.89h2.851l-1.949-6.4h2.041l1.948,6.4h.1a1.7,1.7,0,0,0,1.249-.392,1.781,1.781,0,0,0,.386-1.282V3.226h1.975v5.99a1.664,1.664,0,0,0,.418,1.19,2.195,2.195,0,0,0,1.6.484" transform="translate(-22.849 -0.741)" fill="#fff"/>
        <path id="Path_35" data-name="Path 35" d="M121.991,10.784V12.72a3.448,3.448,0,0,1-2.759-.981,4.136,4.136,0,0,1-3.034.981h-3.2a.925.925,0,0,1-.72-.288,1.015,1.015,0,0,1,0-1.36.925.925,0,0,1,.72-.288h3.2a4.526,4.526,0,0,0,1.112-.1.922.922,0,0,0,.556-.347,1.25,1.25,0,0,0,.163-.7,1.283,1.283,0,0,0-.516-1.007,3.638,3.638,0,0,0-1.465-.667,9.26,9.26,0,0,0-2.216-.235l-.393-2.459a11.765,11.765,0,0,1,2.819-1.576,17.947,17.947,0,0,1,3.642-.922l.287,1.936a12.946,12.946,0,0,0-2.334.51,11,11,0,0,0-2.047.863,6.054,6.054,0,0,1,3.054,1.184A2.952,2.952,0,0,1,120,9.542q.183,1.243,1.988,1.243" transform="translate(-25.722 -0.636)" fill="#fff"/>
        <path id="Path_36" data-name="Path 36" d="M130.277,10.89v1.936a3.081,3.081,0,0,1-2.812-1.151,3.138,3.138,0,0,1-1.183.85,4.148,4.148,0,0,1-1.629.3,1.058,1.058,0,0,1-.752-.275.964.964,0,0,1,0-1.387,1.061,1.061,0,0,1,.752-.274,1.678,1.678,0,0,0,1.177-.418,1.619,1.619,0,0,0,.458-1.256V3.226h1.975v5.99a1.664,1.664,0,0,0,.418,1.19,2.195,2.195,0,0,0,1.6.484" transform="translate(-28.385 -0.741)" fill="#fff"/>
        <path id="Path_37" data-name="Path 37" d="M133.588,3.226h1.975v9.6h-3.61a1.057,1.057,0,0,1-.752-.275.963.963,0,0,1,0-1.386,1.057,1.057,0,0,1,.752-.275h1.635Z" transform="translate(-30.061 -0.741)" fill="#fff"/>
        <path id="Path_38" data-name="Path 38" d="M153.031,14.872h-.2a3.1,3.1,0,0,1,.052.6,2.767,2.767,0,0,1-1.171,2.465,6.585,6.585,0,0,1-3.629.791h-.772a7.136,7.136,0,0,1-2.628-.458,3.823,3.823,0,0,1-2.524-3.819,8.052,8.052,0,0,1,.379-2.314h1.844a7.808,7.808,0,0,0-.288,1.909,2.616,2.616,0,0,0,.785,2.06,3.579,3.579,0,0,0,2.432.7h.772a9.738,9.738,0,0,0,1.746-.117,1.453,1.453,0,0,0,.837-.4,1.222,1.222,0,0,0,.242-.817.87.87,0,0,0-.2-.589,1.582,1.582,0,0,0-.778-.393l-.641-.143q-.327-.091-1.451-.341l.379-1.792q2.014.445,2.89.575a14.131,14.131,0,0,0,1.922.144Zm-7.52,6.513a1.1,1.1,0,1,1,.784.327,1.071,1.071,0,0,1-.784-.327m2.6,0a1.1,1.1,0,1,1,.785.327,1.071,1.071,0,0,1-.785-.327" transform="translate(-32.646 -2.788)" fill="#fff"/>
        <path id="Path_39" data-name="Path 39" d="M157.593,6.523h1.975V12.8h-3.61a1.036,1.036,0,0,1-.745-.287.938.938,0,0,1-.3-.706.878.878,0,0,1,.288-.68,1.085,1.085,0,0,1,.758-.261h1.635Zm.157-1.5a1.106,1.106,0,0,1,0-1.569,1.112,1.112,0,0,1,1.9.784,1.11,1.11,0,0,1-1.9.785" transform="translate(-35.573 -0.717)" fill="#fff"/>
        <path id="Path_40" data-name="Path 40" d="M162.857,11.611H167.5v-.746a3.106,3.106,0,0,0-.3-1.5,1.729,1.729,0,0,0-.941-.784,4.974,4.974,0,0,0-1.713-.242h-.954V6.366h.981a5.258,5.258,0,0,1,3.6,1.151,4.225,4.225,0,0,1,1.307,3.348v2.682h-6.617Z" transform="translate(-37.398 -1.462)" fill="#fff"/>
        <path id="Path_41" data-name="Path 41" d="M173.667,14.809a.719.719,0,0,0,.589-.223,1.236,1.236,0,0,0,.183-.771V7.538h1.974v6.278a3.138,3.138,0,0,1-.628,2.119,2.251,2.251,0,0,1-1.792.72,5.3,5.3,0,0,1-1.648-.288l.38-1.7a4.309,4.309,0,0,0,.941.144" transform="translate(-39.577 -1.731)" fill="#fff"/>
        <path id="Path_42" data-name="Path 42" d="M188.031,2.485v9.6h-8.6V10.149h2.851l-1.949-6.395h2.041l1.948,6.395h1.739V2.485Zm-5.414.444H179.9V2.105h.3a.991.991,0,0,1-.3-.771,1.2,1.2,0,0,1,.445-.961A1.636,1.636,0,0,1,181.427,0a2.216,2.216,0,0,1,.981.236L182,1.021a1.407,1.407,0,0,0-.5-.1.762.762,0,0,0-.471.137.481.481,0,0,0-.183.412.585.585,0,0,0,.2.464.758.758,0,0,0,.517.176h1.046Z" transform="translate(-41.203 0)" fill="#fff"/>
        <rect id="Rectangle_12" data-name="Rectangle 12" width="1.975" height="9.6" transform="translate(148.215 2.484)" fill="#fff"/>
        <path id="Path_43" data-name="Path 43" d="M211.04,14.872h-.2a3.1,3.1,0,0,1,.052.6,2.767,2.767,0,0,1-1.171,2.465,6.585,6.585,0,0,1-3.629.791h-.772a7.136,7.136,0,0,1-2.628-.458,3.823,3.823,0,0,1-2.524-3.819,8.052,8.052,0,0,1,.379-2.314H202.4a7.808,7.808,0,0,0-.288,1.909,2.616,2.616,0,0,0,.785,2.06,3.579,3.579,0,0,0,2.432.7h.772a9.738,9.738,0,0,0,1.746-.117,1.453,1.453,0,0,0,.837-.4,1.222,1.222,0,0,0,.242-.817.87.87,0,0,0-.2-.589,1.582,1.582,0,0,0-.778-.393l-.641-.143q-.327-.091-1.451-.341l.379-1.792q2.014.445,2.89.575a14.131,14.131,0,0,0,1.922.144Zm-7.52,6.513a1.1,1.1,0,1,1,.784.327,1.071,1.071,0,0,1-.784-.327m2.6,0a1.1,1.1,0,1,1,.785.327,1.071,1.071,0,0,1-.785-.327" transform="translate(-45.967 -2.788)" fill="#fff"/>
        <path id="Path_44" data-name="Path 44" d="M219.591,10.866V12.8a3.082,3.082,0,0,1-2.812-1.151,3.134,3.134,0,0,1-1.183.85,4.162,4.162,0,0,1-1.629.3,1.036,1.036,0,0,1-.745-.287.938.938,0,0,1-.3-.706.878.878,0,0,1,.288-.68,1.084,1.084,0,0,1,.758-.261,1.675,1.675,0,0,0,1.177-.419,1.617,1.617,0,0,0,.458-1.255V6.523h1.975V9.192a1.667,1.667,0,0,0,.418,1.19,2.2,2.2,0,0,0,1.6.484M215.772,5.02a1.106,1.106,0,0,1,0-1.569,1.112,1.112,0,0,1,1.9.784,1.11,1.11,0,0,1-1.9.785" transform="translate(-48.894 -0.717)" fill="#fff"/>
        <path id="Path_45" data-name="Path 45" d="M229.9,6.175a4.082,4.082,0,0,1,1.6,1.425,3.619,3.619,0,0,1,.588,2.008v3.217H221.267a1.059,1.059,0,0,1-.752-.274.964.964,0,0,1,0-1.387,1.056,1.056,0,0,1,.752-.274h.68V3.225h1.961L223.9,7.581a3.655,3.655,0,0,1,1.517-1.439,4.945,4.945,0,0,1,2.263-.484,4.788,4.788,0,0,1,2.223.517m.21,3.433a1.769,1.769,0,0,0-.654-1.432,2.7,2.7,0,0,0-1.779-.543,4.324,4.324,0,0,0-1.824.393,3.537,3.537,0,0,0-1.393,1.112,2.823,2.823,0,0,0-.562,1.648v.1h6.212Z" transform="translate(-50.571 -0.741)" fill="#fff"/>
        <path id="Path_46" data-name="Path 46" d="M245.828,13.559h-1.387a3.707,3.707,0,0,1-1.216,2.413,4.041,4.041,0,0,1-2.668.817,9.978,9.978,0,0,1-1.766-.17V14.709a11.071,11.071,0,0,0,1.478.117,2.85,2.85,0,0,0,1.432-.307,1.584,1.584,0,0,0,.726-.961h-.549a5.766,5.766,0,0,1-2.544-.491,3.274,3.274,0,0,1-1.458-1.288,3.428,3.428,0,0,1-.458-1.739,3.522,3.522,0,0,1,.471-1.779,3.405,3.405,0,0,1,1.478-1.333,5.586,5.586,0,0,1,2.538-.51h2.6v5.2h1.321Zm-5.9-2.394a3.312,3.312,0,0,0,1.975.458h.653V8.392h-.679a3.21,3.21,0,0,0-1.955.465,1.412,1.412,0,0,0-.6,1.157,1.392,1.392,0,0,0,.6,1.151" transform="translate(-54.52 -1.474)" fill="#fff"/>
        <path id="Path_47" data-name="Path 47" d="M249.657,3.226h1.975v9.6h-3.61a1.057,1.057,0,0,1-.752-.275.963.963,0,0,1,0-1.386,1.057,1.057,0,0,1,.752-.275h1.635Z" transform="translate(-56.715 -0.741)" fill="#fff"/>
        <rect id="Rectangle_13" data-name="Rectangle 13" width="1.975" height="9.6" transform="translate(196.303 2.484)" fill="#fff"/>
        <path id="Path_48" data-name="Path 48" d="M267.105,10.874v1.935h-1.36a3.137,3.137,0,0,1-.628,2.119,2.25,2.25,0,0,1-1.792.72,5.312,5.312,0,0,1-1.648-.287l.379-1.7A4.352,4.352,0,0,0,263,13.8a.722.722,0,0,0,.589-.222,1.241,1.241,0,0,0,.183-.772V6.531h1.975v4.343Zm-3.165-5.82a1.106,1.106,0,0,1,0-1.569,1.112,1.112,0,0,1,1.9.784,1.11,1.11,0,0,1-1.9.785" transform="translate(-60.091 -0.725)" fill="#fff"/>
        <path id="Path_49" data-name="Path 49" d="M274.349,7.541a4.555,4.555,0,0,1,1.092,3.243V12.72h-7.01a.925.925,0,0,1-.72-.288,1.016,1.016,0,0,1,0-1.36.925.925,0,0,1,.72-.288h5.035a2.6,2.6,0,0,0-1.079-2.36,5.75,5.75,0,0,0-3.118-.7l-.393-2.459a11.735,11.735,0,0,1,2.819-1.575,17.846,17.846,0,0,1,3.642-.922l.287,1.935a12.926,12.926,0,0,0-2.347.51,11,11,0,0,0-2.047.864,5.162,5.162,0,0,1,3.119,1.464" transform="translate(-61.416 -0.636)" fill="#fff"/>
        <path id="Path_50" data-name="Path 50" d="M284.387,11.88v1.936h-1.36a3.138,3.138,0,0,1-.627,2.119,2.253,2.253,0,0,1-1.792.719,5.29,5.29,0,0,1-1.648-.287l.379-1.7a4.364,4.364,0,0,0,.941.144.718.718,0,0,0,.589-.223,1.231,1.231,0,0,0,.183-.771V7.538h1.974V11.88Z" transform="translate(-64.059 -1.731)" fill="#fff"/>
        <path id="Path_51" data-name="Path 51" d="M292.265,6.863a3.55,3.55,0,0,1,1.269,1.354,3.908,3.908,0,0,1,.465,1.89,3.585,3.585,0,0,1-.458,1.85,3.073,3.073,0,0,1-1.216,1.183,3.465,3.465,0,0,1-1.66.406,4.063,4.063,0,0,1-1.393-.249,4.167,4.167,0,0,1-1.276-.746,2.524,2.524,0,0,1-.988.739,3.3,3.3,0,0,1-1.314.256,1.036,1.036,0,0,1-.745-.288.94.94,0,0,1-.3-.706.875.875,0,0,1,.288-.679,1.081,1.081,0,0,1,.758-.262,1.143,1.143,0,0,0,.641-.15.836.836,0,0,0,.32-.412,7.322,7.322,0,0,0,.229-.81c.087-.375.149-.619.183-.733a4.863,4.863,0,0,1,1.275-2.315,2.96,2.96,0,0,1,2.112-.824,3.376,3.376,0,0,1,1.811.5m-.713,4.453a1.547,1.547,0,0,0,.471-1.209,1.875,1.875,0,0,0-.431-1.263,1.427,1.427,0,0,0-1.138-.5,1.132,1.132,0,0,0-.87.36,3.177,3.177,0,0,0-.6,1.144,4.615,4.615,0,0,0-.2.8,1.758,1.758,0,0,0-.046.216,1.817,1.817,0,0,1-.072.281,2.723,2.723,0,0,0,.824.451,2.685,2.685,0,0,0,.863.15,1.71,1.71,0,0,0,1.19-.425m4.447.294v1.936a3.408,3.408,0,0,1-2.518-.785,3.289,3.289,0,0,1-.765-2.38c0-.192,0-.34.013-.444h1.256a1.664,1.664,0,0,0,.418,1.19,2.195,2.195,0,0,0,1.6.484" transform="translate(-65.365 -1.462)" fill="#fff"/>
        <path id="Path_52" data-name="Path 52" d="M300.706,3.226h1.975v9.6h-3.61a1.057,1.057,0,0,1-.752-.275.963.963,0,0,1,0-1.386,1.057,1.057,0,0,1,.752-.275h1.635Z" transform="translate(-68.437 -0.741)" fill="#fff"/>
        <rect id="Rectangle_14" data-name="Rectangle 14" width="1.975" height="9.6" transform="translate(235.63 2.484)" fill="#fff"/>
      </g>
    </g>
  </g>
</svg>
